<svg width="489" height="395" viewBox="0 0 489 395" fill="none" xmlns="http://www.w3.org/2000/svg">
<g clip-path="url(#clip0)">
<path d="M402.212 363C400.809 363 399.415 362.794 398.073 362.381L110.049 274.505C102.555 272.208 98.3388 264.287 100.619 256.787L173.201 19.0463C175.499 11.5548 183.423 7.34035 190.925 9.61961L478.95 97.496C486.444 99.7925 490.66 107.714 488.38 115.214L415.797 352.954C413.965 358.923 408.45 363 402.212 363Z" fill="#80DDD8" fill-opacity="0.36"/>
<path d="M445.103 324.897H143.966C135.896 324.889 129.348 318.343 129.34 310.276V61.7067C129.348 53.6389 135.896 47.0936 143.966 47.085H445.103C453.174 47.0936 459.721 53.6389 459.73 61.7067V310.276C459.721 318.343 453.174 324.889 445.103 324.897ZM143.966 48.8052C136.842 48.8138 131.069 54.585 131.061 61.7067V310.276C131.069 317.397 136.842 323.168 143.966 323.177H445.103C452.227 323.168 458.001 317.397 458.009 310.276V61.7067C458.001 54.585 452.227 48.8138 445.103 48.8052H143.966V48.8052Z" fill="#3F3D56"/>
<path d="M309.162 324.467H279.909C276.82 324.467 274.316 321.964 274.316 318.877V299.954C274.316 296.867 276.82 294.364 279.909 294.364H309.162C312.251 294.364 314.755 296.867 314.755 299.954V318.877C314.746 321.964 312.251 324.467 309.162 324.467Z" fill="#3F3D56"/>
<path d="M130.623 110.913C137.575 110.913 143.21 105.279 143.21 98.3298C143.21 91.3803 137.575 85.7466 130.623 85.7466C123.671 85.7466 118.035 91.3803 118.035 98.3298C118.035 105.279 123.671 110.913 130.623 110.913Z" fill="#EB7F48"/>
<path d="M471.8 52.1854C471.8 52.667 471.782 53.1401 471.739 53.6131C470.956 64.3988 461.57 72.5009 450.789 71.7096C439.999 70.9269 431.895 61.5518 432.686 50.7662C432.884 48.0655 433.641 45.4422 434.897 43.0511C435.319 42.2426 435.801 41.4685 436.334 40.7374C442.658 31.973 454.893 29.9862 463.66 36.3079C468.315 39.6623 471.258 44.8831 471.722 50.5942C471.782 51.1188 471.8 51.6521 471.8 52.1854Z" fill="#3F3D56"/>
<path d="M399.287 336.268C406.239 336.268 411.874 330.634 411.874 323.685C411.874 316.735 406.239 311.102 399.287 311.102C392.335 311.102 386.699 316.735 386.699 323.685C386.699 330.634 392.335 336.268 399.287 336.268Z" fill="#E7ED4E"/>
<path d="M302.923 60.1763C309.875 60.1763 315.511 54.5426 315.511 47.593C315.511 40.6435 309.875 35.0098 302.923 35.0098C295.972 35.0098 290.336 40.6435 290.336 47.593C290.336 54.5426 295.972 60.1763 302.923 60.1763Z" fill="#E7ED4E"/>
<path d="M197.217 216H166.533C165.687 216 165 216.686 165 217.533V218.793C165 219.64 165.687 220.326 166.533 220.326H197.217C198.063 220.326 198.75 219.64 198.75 218.793V217.533C198.75 216.686 198.063 216 197.217 216Z" fill="#80DDD8"/>
<path d="M222.274 227H167.726C166.221 227 165 227.793 165 228.772V230.228C165 231.207 166.221 232 167.726 232H222.274C223.779 232 225 231.207 225 230.228V228.772C225 227.793 223.779 227 222.274 227Z" fill="#80DDD8"/>
<path d="M185.046 238H165.954C165.427 238 165 238.635 165 239.418V240.582C165 241.365 165.427 242 165.954 242H185.046C185.573 242 186 241.365 186 240.582V239.418C186 238.635 185.573 238 185.046 238Z" fill="#27303F"/>
<path d="M207.683 203.364C209.164 203.364 210.365 202.164 210.365 200.682C210.365 199.201 209.164 198 207.683 198C206.201 198 205 199.201 205 200.682C205 202.164 206.201 203.364 207.683 203.364Z" fill="#EB7F48"/>
<path d="M236.066 203.364C237.547 203.364 238.748 202.164 238.748 200.682C238.748 199.201 237.547 198 236.066 198C234.584 198 233.383 199.201 233.383 200.682C233.383 202.164 234.584 203.364 236.066 203.364Z" fill="#EB7F48"/>
<path d="M221.874 203.364C223.356 203.364 224.557 202.164 224.557 200.682C224.557 199.201 223.356 198 221.874 198C220.392 198 219.191 199.201 219.191 200.682C219.191 202.164 220.392 203.364 221.874 203.364Z" fill="#EB7F48"/>
</g>
<g clip-path="url(#clip1)">
<path d="M434.558 380.32C434.742 381.745 436.218 390.032 435.19 391.59C433.346 394.41 415.616 395.519 414.69 394.796C413.763 394.074 413.04 392.414 413.712 391.824C414.394 391.233 421.197 388.912 422.053 388.118C422.918 387.334 423.794 383.669 423.04 381.847" fill="black"/>
<path d="M352.14 369.335C352.324 370.75 353.79 379.047 352.772 380.605C350.928 383.414 333.198 384.524 332.272 383.812C331.345 383.099 330.622 381.429 331.294 380.839C331.976 380.248 338.779 377.917 339.635 377.133C340.5 376.349 341.376 372.684 340.622 370.872" fill="black"/>
<path d="M381.135 152.044C379.842 155.953 358.721 273.446 357.386 279.819C356.052 286.191 335.776 366.291 337.538 368.938C339.3 371.595 351.653 375.138 354.749 373.366C357.845 371.595 411.666 251.201 415.648 236.185C419.63 221.179 415.648 142.678 415.648 142.678L381.135 152.044Z" fill="#27303F"/>
<path d="M397.246 152.91C398.061 159.344 410.455 265.373 414.1 282.13C417.746 298.887 414.406 379.862 417.105 381.134C420.587 384.015 438.664 384.015 438.664 384.015C441.943 381.134 453.542 160.779 453.542 160.779C453.542 160.779 424.722 134.829 397.246 152.91Z" fill="#EB7F48"/>
<path d="M374.066 17.9787C371.235 17.0727 368.444 15.9936 365.735 14.7719C364.523 14.0593 369.717 5.28377 372.131 2.74885C374.544 0.213925 379.514 -1.08917 382.121 1.18106C384.728 3.4513 383.109 9.03016 374.066 17.9787Z" fill="#F8CDBA"/>
<path d="M445.202 65.9181C461.15 75.0499 479.715 129.352 479.715 133.516C479.715 137.68 445.782 200.004 443.745 200.004C442.004 198.141 434.641 189.345 434.641 189.345C436.484 186.505 448.562 159.232 448.99 158.092C446.047 158.58 384.058 160.637 378.834 158.336C373.609 156.045 375.646 97.0498 374.271 95.085C372.886 93.1202 335.858 90.3816 331.285 83.3368C333.169 48.5503 363.334 15.1789 365.544 14.283C367.754 13.3872 374.923 15.8406 375.239 17.4593C374.373 19.7499 358.028 62.5382 359.505 64.5845C367.173 63.7802 438.562 62.1106 445.202 65.9181Z" fill="white"/>
<path d="M443.756 200.279H443.633L443.552 200.188C441.831 198.345 434.509 189.6 434.437 189.508L434.305 189.346L434.417 189.172C436.087 186.607 446.974 162.164 448.562 158.397C441.912 159.008 383.875 160.83 378.732 158.57C375.391 157.104 374.892 135.827 374.638 112.27C374.546 103.84 374.465 95.869 374.047 95.2276C373.64 94.6473 368.181 93.7616 362.896 92.8963C350.746 90.9213 334.116 88.2031 331.051 83.4794L331 83.4082V83.3165C331.988 64.9918 340.817 47.4408 348.048 35.9471C356.154 23.0587 364.23 14.5071 365.432 14.0185C367.214 13.2957 371.522 14.5377 373.711 15.7186C374.801 16.3091 375.412 16.869 375.514 17.3984L375.534 17.4798L375.453 17.6936C367.183 39.3982 359.219 61.9071 359.688 64.2792C368.925 63.4138 438.725 61.8868 445.344 65.6841C461.272 74.7955 480 129.475 480 133.526C480 137.884 446.118 200.279 443.756 200.279ZM434.987 189.315C435.955 190.476 442.055 197.744 443.827 199.679C446.974 197.459 479.43 137.273 479.43 133.516C479.43 129.495 460.854 75.2027 445.059 66.1625C438.684 62.5078 367.774 64.0043 359.525 64.8594L359.362 64.8798L359.27 64.7475C357.885 62.8234 369.75 31.0707 374.923 17.5002L374.943 17.4391C374.821 17.1133 374.271 16.6552 373.436 16.2073C371.114 14.9551 367.122 13.9268 365.635 14.5377C363.038 15.5964 333.444 49.4463 331.57 83.2555C334.636 87.7247 351.683 90.5039 362.987 92.3567C370.401 93.5682 373.986 94.179 374.505 94.9222C375.004 95.6247 375.086 101.356 375.198 112.28C375.371 128.864 375.666 156.626 378.956 158.071C383.844 160.219 445.324 158.407 448.949 157.807L449.428 157.725L449.255 158.183C448.725 159.588 437.167 185.67 434.987 189.315Z" fill="black"/>
<path d="M448.99 158.315C448.96 158.315 448.929 158.315 448.899 158.295C448.756 158.244 448.675 158.081 448.726 157.939C451.027 151.484 453.074 136.519 453.247 134.147C453.38 132.376 441.943 112.524 438.185 105.998C437.452 104.726 436.922 103.809 436.698 103.402C436.627 103.27 436.668 103.097 436.81 103.026C436.943 102.954 437.116 102.995 437.197 103.138C437.421 103.535 437.951 104.451 438.684 105.723C445.803 118.072 453.95 132.467 453.817 134.198C453.634 136.59 451.577 151.637 449.265 158.142C449.214 158.244 449.102 158.315 448.99 158.315Z" fill="black"/>
<path d="M374.526 95.818C374.374 95.818 374.251 95.6958 374.251 95.5533C374.037 90.5344 374.302 85.4442 375.046 80.4252C375.066 80.2725 375.198 80.1707 375.361 80.1911C375.514 80.2114 375.616 80.354 375.596 80.5067C374.852 85.4951 374.587 90.5445 374.801 95.5329C374.811 95.6857 374.689 95.818 374.537 95.8282C374.537 95.818 374.537 95.818 374.526 95.818Z" fill="black"/>
<path d="M407.887 67.4351C407.887 69.7053 420.362 69.8377 420.352 67.4351V52.2256H407.887V67.4351Z" fill="white"/>
<path d="M414.221 69.4508C411.869 69.4508 409.496 69.125 408.365 68.4735C407.856 68.1783 407.602 67.8321 407.602 67.4249V51.9507H420.627V67.4351C420.627 67.8525 420.362 68.219 419.853 68.5244C418.773 69.1454 416.512 69.4508 414.221 69.4508ZM408.162 52.5106V67.4351C408.162 67.6692 408.426 67.8729 408.65 67.995C410.718 69.1861 417.551 69.2065 419.578 68.0357C419.914 67.8423 420.077 67.6387 420.077 67.4351V52.5106H408.162Z" fill="black"/>
<path d="M420.332 61.2659C420.332 59.9119 416.238 54.1396 413.855 54.9235C416.788 53.8749 419.222 51.4316 420.302 52.1951L420.332 61.2659Z" fill="black"/>
<path d="M408.243 58.2221C417.185 58.2221 424.435 50.9533 424.435 41.9843C424.435 33.0154 417.185 25.7466 408.243 25.7466C399.302 25.7466 392.051 33.0154 392.051 41.9843C392.051 50.9533 399.302 58.2221 408.243 58.2221Z" fill="white"/>
<path d="M408.245 58.507C399.161 58.507 391.777 51.0957 391.777 41.9842C391.777 32.8728 399.161 25.4614 408.245 25.4614C417.329 25.4614 424.712 32.8728 424.712 41.9842C424.712 51.0957 417.318 58.507 408.245 58.507ZM408.245 26.0213C399.476 26.0213 392.337 33.1782 392.337 41.9842C392.337 50.7903 399.476 57.9471 408.245 57.9471C417.013 57.9471 424.152 50.7903 424.152 41.9842C424.152 33.1782 417.013 26.0213 408.245 26.0213Z" fill="black"/>
<path d="M392.986 48.53C394.462 48.3772 395.593 47.6341 395.522 46.8604C395.44 46.0867 394.188 45.5878 392.711 45.7303C391.234 45.883 390.104 46.6262 390.175 47.3999C390.246 48.1736 391.509 48.6827 392.986 48.53Z" fill="#FA9E9F"/>
<path d="M410.334 46.7894C411.821 46.6367 412.961 45.8834 412.88 45.0995C412.798 44.3258 411.525 43.8168 410.038 43.9695C408.552 44.1222 407.411 44.8755 407.492 45.6594C407.574 46.4331 408.847 46.9421 410.334 46.7894Z" fill="#FA9E9F"/>
<path d="M399.711 48.8966C399.67 48.8966 399.639 48.8864 399.599 48.8762C398.825 48.6217 398.315 48.1738 398.081 47.5528C397.572 46.1784 398.621 44.4274 399.13 43.5824L399.263 43.3686C399.354 43.1956 399.568 43.1447 399.741 43.2363C399.914 43.3279 399.965 43.5417 399.874 43.7148L399.741 43.9489C399.324 44.6412 398.356 46.2599 398.753 47.3085C398.906 47.7258 399.263 48.0109 399.833 48.2043C400.016 48.2654 400.118 48.469 400.057 48.6523C399.996 48.805 399.863 48.8966 399.711 48.8966Z" fill="black"/>
<path d="M405.507 51.8387C405.334 51.8387 405.181 51.7064 405.16 51.5333C405.13 51.3399 405.272 51.1668 405.466 51.1363C406.087 51.0549 407.156 50.0979 407.717 49.1206C407.818 48.9475 408.022 48.8966 408.195 48.9882C408.368 49.09 408.419 49.3038 408.328 49.4667C407.727 50.5051 406.494 51.7064 405.558 51.8286C405.527 51.8388 405.517 51.8387 405.507 51.8387Z" fill="black"/>
<path d="M418.895 43.1243C418.895 47.8785 424.12 50.9734 425.912 50.9734C426.981 51.1261 427.969 50.3625 428.112 49.2936C428.132 49.1714 428.132 49.0493 428.132 48.9373C428.132 46.9521 426.961 45.2418 424.507 43.0836C424.934 42.3404 428.132 38.4209 428.132 32.9031C428.132 27.0596 424.558 22.1628 422.164 22.1628C420.056 22.3053 418.315 23.8528 417.918 25.9296C417.918 17.7649 409.221 11.9111 403.996 11.9111C399.159 11.9111 398.334 14.0185 398.334 15.739C398.334 19.4955 401.288 23.5168 402.398 24.4636C399.689 22.4682 395.442 20.4525 391.806 20.4525C389.505 20.4525 386.582 21.104 386.582 24.2803C386.582 30.1035 392.02 33.4732 393.833 34.4098C394.525 33.0457 395.411 31.8037 396.44 30.6838C396.114 31.7833 397.448 33.7787 400.015 34.2368C401.501 34.5625 418.895 32.2109 418.895 43.1243Z" fill="black"/>
</g>
<g clip-path="url(#clip2)">
<path d="M10.3215 383.286C10.2487 384.52 9.485 391.768 10.4451 393.046C12.2126 395.363 27.6544 395.246 28.4181 394.578C29.1818 393.91 29.6983 392.421 29.08 391.949C28.4618 391.477 22.4174 389.872 21.6319 389.255C20.8463 388.638 19.8717 385.515 20.4026 383.903" fill="#1F161E"/>
<path d="M86.8411 183.184C89.4741 189.139 111.564 254.019 111.055 263.482C110.546 272.945 59.427 370.418 56.6049 371.449C53.7827 372.48 42.0505 368.878 41.1049 366.322C40.1593 363.765 58.9179 305.588 59.427 290.693" fill="#1F161E"/>
<path d="M86.8392 183.184C85.5154 190.199 63.5347 286.975 63.5347 286.975L23.2319 384.433C19.8787 386.067 10.0231 386.242 8.29194 385.719C6.56811 385.203 14.8527 291.877 18.1258 278.652C21.3989 265.428 30.0254 173.62 30.0254 173.62C30.0254 173.62 75.1797 174.368 86.8392 183.184Z" fill="#E7ED4E"/>
<path d="M75.9492 79.6396C82.6045 82.7406 125.017 103.576 128.661 103.576C132.305 103.576 171.073 81.7021 173.357 80.2279C175.524 82.392 178.834 85.8052 178.034 86.9164C177.234 88.0275 132.77 129.509 129.003 129.509C125.235 129.509 87.0487 117.904 84.0811 114.723" fill="white"/>
<path d="M128.995 129.879C125.497 129.879 87.0487 118.456 83.8119 114.977C83.6737 114.832 83.681 114.6 83.8338 114.462C83.9792 114.324 84.212 114.331 84.3502 114.483C85.5721 115.798 94.0095 119.051 106.353 122.973C117.089 126.379 127.25 129.153 129.003 129.153C129.686 129.153 133.52 127.134 154.329 108.419C166.236 97.715 177.306 87.2865 177.743 86.7055C178.041 86.2916 177.51 84.9045 173.306 80.6852C169.48 82.9873 132.428 103.931 128.668 103.931C126.006 103.931 105.174 94.0767 83.0555 83.4303C79.7169 81.8254 77.0766 80.5545 75.8037 79.959C75.6219 79.8718 75.5419 79.6612 75.6292 79.4797C75.7164 79.2981 75.9347 79.2182 76.1165 79.3054C77.3966 79.9009 80.0369 81.1718 83.3755 82.784C97.1517 89.4143 125.81 103.212 128.668 103.212C132.152 103.212 171.16 81.2226 173.16 79.9227L173.408 79.7629L173.619 79.9735C177.066 83.4158 179.19 85.9503 178.332 87.134C178.012 87.5697 133.265 129.879 128.995 129.879Z" fill="#1F161E"/>
<path d="M61.5548 75.1156C99.6756 68.8774 90.5909 179.008 86.8377 183.184C83.0846 187.36 31.675 177.331 28.3291 173.38C24.9833 169.43 34.8099 76.1614 61.5548 75.1156Z" fill="white"/>
<path d="M81.4345 184.542C81.2236 184.542 81.0054 184.542 80.7799 184.534C66.3782 184.316 30.8977 176.967 28.0538 173.612C25.6535 170.773 29.6831 122.922 42.1936 94.5777C47.867 81.7164 54.3696 75.0425 61.5195 74.752C69.695 73.423 76.3212 77.2647 81.2018 86.1754C89.6682 101.622 90.9193 128.892 90.9047 143.764C90.8902 164.338 88.6281 181.731 87.1079 183.423C86.4388 184.179 84.5767 184.542 81.4345 184.542ZM64.5671 75.224C63.607 75.224 62.6251 75.3039 61.614 75.471L61.5704 75.4782C54.7114 75.7469 48.4198 82.2684 42.8555 94.8755C30.8177 122.167 26.3081 170.424 28.6066 173.147C31.5233 176.59 68.0875 183.627 80.7872 183.815C85.0859 183.881 86.2496 183.3 86.5697 182.944C87.7989 181.571 90.1701 165.253 90.1846 143.772C90.1919 128.964 88.9627 101.84 80.569 86.5313C76.4521 79.0149 71.077 75.224 64.5671 75.224Z" fill="#1F161E"/>
<path d="M43.3356 367.019C42.8847 368.166 39.9316 374.833 40.4771 376.344C41.4591 379.089 56.188 383.671 57.1118 383.265C58.0428 382.858 58.9956 381.594 58.552 380.962C58.1083 380.338 52.8349 376.976 52.2676 376.133C51.7002 375.291 51.7293 372.044 52.7331 370.665" fill="#1F161E"/>
<path d="M68.268 80.8529C68.268 83.4818 56.543 83.6779 56.543 80.8529V63.293H68.268V80.8529Z" fill="white"/>
<path d="M62.238 83.2643C60.6888 83.2643 59.2559 83.0827 58.2012 82.7414C56.5283 82.2113 56.1719 81.4197 56.1719 80.8532V62.9302H68.6242V80.8605C68.6315 82.7559 64.6165 83.2643 62.238 83.2643ZM56.8992 63.6564V80.8605C56.8992 81.485 57.8521 81.8772 58.4194 82.0588C59.4086 82.371 60.7615 82.5453 62.238 82.5453C65.3584 82.5453 67.8969 81.7901 67.8969 80.8605V63.6564H56.8992Z" fill="#1F161E"/>
<path d="M56.5312 71.7604C56.5312 70.4968 60.8445 63.6195 63.0847 64.3603C60.3281 63.3799 57.5495 62.581 56.5312 63.2564V71.7604Z" fill="black"/>
<path d="M64.2967 64.9993C55.8812 64.9993 49.0586 58.1874 49.0586 49.7851C49.0586 41.3827 55.8812 34.5708 64.2967 34.5708C72.7123 34.5708 79.5349 41.3827 79.5349 49.7851C79.5349 58.1874 72.7123 64.9993 64.2967 64.9993Z" fill="white"/>
<path d="M64.2971 65.3628C55.6925 65.3628 48.6953 58.3765 48.6953 49.7854C48.6953 41.1942 55.6925 34.208 64.2971 34.208C72.9018 34.208 79.8989 41.1942 79.8989 49.7854C79.8989 58.3765 72.9018 65.3628 64.2971 65.3628ZM64.2971 34.9342C56.0925 34.9342 49.4227 41.5936 49.4227 49.7854C49.4227 57.9771 56.0925 64.6365 64.2971 64.6365C72.5017 64.6365 79.1716 57.9771 79.1716 49.7854C79.1716 41.5936 72.4944 34.9342 64.2971 34.9342Z" fill="#1F161E"/>
<path d="M79.702 53.1473C78.2982 53.1473 77.1562 52.5591 77.1562 51.8256C77.1562 51.0921 78.2982 50.5039 79.702 50.5039C81.1058 50.5039 82.2477 51.0921 82.2477 51.8256C82.2477 52.5518 81.1058 53.1473 79.702 53.1473Z" fill="#FA9E9F"/>
<path d="M63.7176 53.1473C62.3138 53.1473 61.1719 52.5591 61.1719 51.8256C61.1719 51.0921 62.3138 50.5039 63.7176 50.5039C65.1214 50.5039 66.2634 51.0921 66.2634 51.8256C66.2707 52.5518 65.1287 53.1473 63.7176 53.1473Z" fill="#FA9E9F"/>
<path d="M73.8416 54.0046C73.7471 54.0046 73.6525 53.9465 73.6161 53.8593C73.5579 53.7359 73.6161 53.5833 73.7398 53.5253C74.2853 53.2856 74.5981 52.9588 74.7144 52.5303C74.9836 51.4846 73.9143 50.0539 73.4634 49.4439C73.3979 49.3568 73.3397 49.2841 73.3034 49.2188C73.2234 49.1026 73.2525 48.9501 73.3616 48.8702C73.4707 48.7903 73.6307 48.8194 73.7107 48.9283C73.7471 48.9864 73.8052 49.0517 73.8634 49.1389C74.409 49.8651 75.5363 51.3684 75.2018 52.6538C75.049 53.2275 74.6272 53.6705 73.9507 53.9755C73.9071 53.9973 73.8707 54.0046 73.8416 54.0046Z" fill="#1F161E"/>
<path d="M68.6756 57.3231C68.6538 57.3231 68.632 57.3231 68.6102 57.3159C67.5337 57.0254 66.5881 56.35 65.9553 55.4132C65.8753 55.297 65.9044 55.1445 66.0208 55.0646C66.1371 54.9847 66.2899 55.0138 66.3699 55.13C66.9372 55.9651 67.781 56.5679 68.7411 56.8293C68.872 56.8656 68.952 57.0036 68.9157 57.1343C68.8866 57.2505 68.792 57.3231 68.6756 57.3231Z" fill="#1F161E"/>
<path d="M29.0361 177.73C12.1396 177.273 0 165.457 0 135.072C0 122.523 20.897 84.7525 25.0429 70.4823C27.1886 63.1112 25.4648 41.4336 36.4115 30.4023C41.6921 25.0937 64.8948 26.3428 70.8882 28.8482C76.8816 31.3537 76.1761 38.8845 75.5651 40.0683C74.1322 38.8627 70.9901 36.4227 70.43 36.4953C67.4915 36.8584 59.4614 45.8708 57.0248 50.0102C55.0464 53.3581 58.094 74.1351 54.2317 80.0683C50.3695 86.0088 36.6952 82.8861 36.6952 82.8861" fill="#1F161E"/>
<path d="M61.4254 119.364C59.0906 122.283 41.8304 153.373 41.8304 158.05C41.8304 162.726 46.951 195.864 47.9693 197.469C45.6345 199.219 39.4883 204.034 39.4883 204.034C39.4883 204.034 20.7734 171.042 20.7734 152.501C20.7734 145.929 35.6843 92.4939 50.0205 80.2354" fill="white"/>
<path d="M39.3874 204.586L39.1765 204.215C38.9874 203.881 20.418 170.918 20.418 152.501C20.418 146.118 35.2997 92.3561 49.7886 79.9595C49.9414 79.8288 50.1742 79.8433 50.3051 79.9958C50.436 80.1483 50.4215 80.3807 50.2687 80.5042C35.9034 92.7918 21.1526 146.162 21.1526 152.494C21.1526 169.676 37.569 199.8 39.6129 203.482C40.8785 202.487 45.4172 198.943 47.5338 197.345C46.1228 193.446 41.475 162.051 41.475 158.042C41.475 153.235 58.5969 122.32 61.15 119.132C61.2736 118.972 61.5064 118.95 61.6591 119.074C61.8191 119.197 61.841 119.429 61.7173 119.582C59.2516 122.661 42.2023 153.511 42.2023 158.042C42.2023 162.756 47.3229 195.748 48.283 197.265L48.4649 197.549L48.1957 197.752C45.89 199.48 39.7875 204.266 39.722 204.31L39.3874 204.586Z" fill="#1F161E"/>
<path d="M44.4834 179.045C44.3088 179.045 44.1488 178.914 44.127 178.74C42.8032 170.171 41.4648 160.454 41.4648 158.05C41.4648 153.242 58.5868 122.327 61.1399 119.139C61.2635 118.98 61.4963 118.958 61.649 119.081C61.809 119.205 61.8308 119.437 61.7072 119.59C59.2414 122.669 42.1922 153.518 42.1922 158.05C42.1922 160.41 43.5233 170.091 44.8471 178.631C44.8761 178.827 44.7452 179.016 44.5416 179.045C44.5197 179.045 44.4979 179.045 44.4834 179.045Z" fill="#1F161E"/>
<path d="M55.768 75.065C56.4808 81.2379 38.4423 102.777 31.416 109.081C24.397 100.25 28.6084 78.3693 28.6084 78.3693L42.9374 71.7607L55.768 75.065Z" fill="#1F161E"/>
<path d="M39.4949 29.4292C35.4071 29.4292 32.0977 25.5294 32.0977 20.7146C32.0977 15.8998 35.4071 12 39.4949 12C43.5826 12 46.8921 15.8998 46.8921 20.7146C46.8921 25.5294 43.5754 29.4292 39.4949 29.4292Z" fill="#1F161E"/>
<path d="M89.1676 117.715C88.9857 117.715 88.8257 117.577 88.8039 117.396C87.4583 105.747 85.1671 96.3284 81.9958 89.3857C81.9158 89.2042 81.9958 88.9863 82.1777 88.9064C82.3595 88.8265 82.5777 88.9064 82.6577 89.088C85.8581 96.096 88.1638 105.595 89.524 117.316C89.5458 117.512 89.4003 117.694 89.2039 117.715C89.1967 117.708 89.1821 117.715 89.1676 117.715Z" fill="#1F161E"/>
<path d="M180.507 86.6042C176.572 86.6042 173.379 83.9753 173.379 80.7291C173.379 77.4829 176.572 74.854 180.507 74.854C184.442 74.854 187.635 77.4829 187.635 80.7291C187.635 83.9753 184.442 86.6042 180.507 86.6042Z" fill="#F8CDBA"/>
<path d="M55.7901 54.535C53.9353 54.535 52.4297 53.0317 52.4297 51.1798C52.4297 49.328 53.9353 47.8247 55.7901 47.8247C57.6448 47.8247 59.1505 49.328 59.1505 51.1798C59.1505 53.0317 57.6448 54.535 55.7901 54.535Z" fill="white"/>
</g>
<defs>
<clipPath id="clip0">
<rect width="389" height="354" fill="white" transform="translate(100 9)"/>
</clipPath>
<clipPath id="clip1">
<rect width="149" height="395" fill="white" transform="translate(331)"/>
</clipPath>
<clipPath id="clip2">
<rect width="188" height="383" fill="white" transform="translate(0 12)"/>
</clipPath>
</defs>
</svg>
